<svg xmlns="http://www.w3.org/2000/svg" viewBox="0 0 1080 720" width="1080" height="720" preserveAspectRatio="xMidYMid meet" style="transform: translate3d(0px, 0px, 0px); content-visibility: visible;"><defs><clipPath id="__lottie_element_2"><rect width="1080" height="720" x="0" y="0"/></clipPath></defs><g clip-path="url(#__lottie_element_2)"><g transform="matrix(1,0,0,1,540,350)" opacity="1" style="display: block;"><g opacity="1" transform="matrix(1,0,0,1,0,0)"><path stroke-linecap="butt" stroke-linejoin="miter" fill-opacity="0" stroke-miterlimit="4" stroke="rgb(255,255,255)" stroke-opacity="1" stroke-width="5" d=" M13.520000457763672,-212 C183.8990020751953,-212 350,-212 350,-212 C383.114013671875,-212 410,-185.11399841308594 410,-152 C410,-152 410,-152 410,-152 C410,-152 410,152 410,152 C410,185.11399841308594 383.114013671875,212 350,212 C350,212 -350,212 -350,212 C-383.114013671875,212 -410,185.11399841308594 -410,152 C-410,152 -410,-152 -410,-152 C-410,-185.11399841308594 -383.114013671875,-212 -350,-212 C-350,-212 -165.86900329589844,-212 13.520000457763672,-212"/></g></g><g transform="matrix(1,0,0,1,544,294)" opacity="0.2" style="display: block;"><g opacity="1" transform="matrix(1,0,0,1,0,0)"><path fill="rgb(255,255,255)" fill-opacity="1" d=" M177.16299438476562,127 C177.16299438476562,127 213.16299438476562,127 213.16299438476562,127 C213.16299438476562,127 213.16299438476562,240 213.16299438476562,240 C213.16299438476562,240 246.36300659179688,240 246.36300659179688,240 C246.36300659179688,240 246.36300659179688,127 246.36300659179688,127 C246.36300659179688,127 282.3630065917969,127 282.3630065917969,127 C282.3630065917969,127 282.3630065917969,100 282.3630065917969,100 C282.3630065917969,100 177.16299438476562,100 177.16299438476562,100 C177.16299438476562,100 177.16299438476562,127 177.16299438476562,127z"/></g><g opacity="1" transform="matrix(1,0,0,1,0,0)"><path fill="rgb(255,255,255)" fill-opacity="1" d=" M116.63200378417969,240 C116.63200378417969,240 170.4320068359375,240 170.4320068359375,240 C170.4320068359375,240 170.4320068359375,100 170.4320068359375,100 C170.4320068359375,100 138.03199768066406,100 138.03199768066406,100 C138.03199768066406,100 138.03199768066406,210.60000610351562 138.03199768066406,210.60000610351562 C138.03199768066406,210.60000610351562 135.4320068359375,210.60000610351562 135.4320068359375,210.60000610351562 C135.4320068359375,210.60000610351562 102.03199768066406,100 102.03199768066406,100 C102.03199768066406,100 49.43199920654297,100 49.43199920654297,100 C49.43199920654297,100 49.43199920654297,240 49.43199920654297,240 C49.43199920654297,240 81.83200073242188,240 81.83200073242188,240 C81.83200073242188,240 81.83200073242188,131.1999969482422 81.83200073242188,131.1999969482422 C81.83200073242188,131.1999969482422 83.03199768066406,131.1999969482422 83.03199768066406,131.1999969482422 C83.03199768066406,131.1999969482422 116.63200378417969,240 116.63200378417969,240z"/></g><g opacity="1" transform="matrix(1,0,0,1,0,0)"><path fill="rgb(255,255,255)" fill-opacity="1" d=" M0.5009999871253967,240 C0.5009999871253967,240 33.500999450683594,240 33.500999450683594,240 C33.500999450683594,240 33.500999450683594,100 33.500999450683594,100 C33.500999450683594,100 0.5009999871253967,100 0.5009999871253967,100 C0.5009999871253967,100 0.5009999871253967,240 0.5009999871253967,240z"/></g><g opacity="1" transform="matrix(1,0,0,1,0,0)"><path fill="rgb(255,255,255)" fill-opacity="1" d=" M-119.03199768066406,171.60000610351562 C-119.03199768066406,162.13400268554688 -117.56600189208984,153.66900634765625 -114.63200378417969,146.1999969482422 C-111.70099639892578,138.73399353027344 -107.5009994506836,132.86900329589844 -102.03199768066406,128.60000610351562 C-96.56600189208984,124.33399963378906 -90.10099792480469,122.19999694824219 -82.63200378417969,122.19999694824219 C-75.16600036621094,122.19999694824219 -68.66600036621094,124.33399963378906 -63.13199996948242,128.60000610351562 C-57.60100173950195,132.86900329589844 -53.43199920654297,138.73399353027344 -50.63199996948242,146.1999969482422 C-47.832000732421875,153.66900634765625 -46.43199920654297,162.13400268554688 -46.43199920654297,171.60000610351562 C-46.43199920654297,186 -49.63199996948242,197.36900329589844 -56.03200149536133,205.6999969482422 C-62.43199920654297,214.03399658203125 -71.3010025024414,218.1999969482422 -82.63200378417969,218.1999969482422 C-94.10099792480469,218.1999969482422 -103.03199768066406,214.03399658203125 -109.43199920654297,205.6999969482422 C-115.83200073242188,197.36900329589844 -119.03199768066406,186 -119.03199768066406,171.60000610351562z M-82.63200378417969,242.60000610351562 C-67.83200073242188,242.60000610351562 -55.16600036621094,239.83399963378906 -44.63199996948242,234.3000030517578 C-34.10100173950195,228.7689971923828 -25.93199920654297,220.6999969482422 -20.131999969482422,210.10000610351562 C-14.331999778747559,199.5 -11.432000160217285,186.66900634765625 -11.432000160217285,171.60000610351562 C-11.432000160217285,156.39999389648438 -14.331999778747559,143.1999969482422 -20.131999969482422,132 C-25.93199920654297,120.80000305175781 -34.16600036621094,112.23400115966797 -44.832000732421875,106.30000305175781 C-55.500999450683594,100.36900329589844 -68.10099792480469,97.4000015258789 -82.63200378417969,97.4000015258789 C-97.16600036621094,97.4000015258789 -109.8010025024414,100.36900329589844 -120.53199768066406,106.30000305175781 C-131.26600646972656,112.23400115966797 -139.53199768066406,120.80000305175781 -145.33200073242188,132 C-151.1320037841797,143.1999969482422 -154.03199768066406,156.39999389648438 -154.03199768066406,171.60000610351562 C-154.03199768066406,186.53399658203125 -151.1320037841797,199.33399963378906 -145.33200073242188,210 C-139.53199768066406,220.66900634765625 -131.30099487304688,228.7689971923828 -120.63200378417969,234.3000030517578 C-109.96600341796875,239.83399963378906 -97.3010025024414,242.60000610351562 -82.63200378417969,242.60000610351562z"/></g><g opacity="1" transform="matrix(1,0,0,1,0,0)"><path fill="rgb(255,255,255)" fill-opacity="1" d=" M-240.76300048828125,164.1999969482422 C-240.76300048828125,164.1999969482422 -240.76300048828125,126.4000015258789 -240.76300048828125,126.4000015258789 C-240.76300048828125,126.4000015258789 -209.76300048828125,126.4000015258789 -209.76300048828125,126.4000015258789 C-203.0970001220703,126.4000015258789 -197.96299743652344,128.1999969482422 -194.36300659179688,131.8000030517578 C-190.76300048828125,135.39999389648438 -188.96299743652344,139.9340057373047 -188.96299743652344,145.39999389648438 C-188.96299743652344,150.73399353027344 -190.76300048828125,155.1999969482422 -194.36300659179688,158.8000030517578 C-197.96299743652344,162.39999389648438 -203.0970001220703,164.1999969482422 -209.76300048828125,164.1999969482422 C-209.76300048828125,164.1999969482422 -240.76300048828125,164.1999969482422 -240.76300048828125,164.1999969482422z M-273.76300048828125,100 C-273.76300048828125,100 -273.76300048828125,240 -273.76300048828125,240 C-273.76300048828125,240 -240.76300048828125,240 -240.76300048828125,240 C-240.76300048828125,240 -240.76300048828125,190.60000610351562 -240.76300048828125,190.60000610351562 C-240.76300048828125,190.60000610351562 -206.76300048828125,190.60000610351562 -206.76300048828125,190.60000610351562 C-192.0970001220703,190.60000610351562 -180.53199768066406,186.66900634765625 -172.06300354003906,178.8000030517578 C-163.5970001220703,170.9340057373047 -159.36300659179688,159.8000030517578 -159.36300659179688,145.39999389648438 C-159.36300659179688,130.86900329589844 -163.5970001220703,119.66899871826172 -172.06300354003906,111.80000305175781 C-180.53199768066406,103.93399810791016 -192.0970001220703,100 -206.76300048828125,100 C-206.76300048828125,100 -273.76300048828125,100 -273.76300048828125,100z"/></g><g opacity="1" transform="matrix(1,0,0,1,0,0)"><path fill="rgb(255,255,255)" fill-opacity="1" d=" M232.16000366210938,16 C232.16000366210938,16 274.7200012207031,16 274.7200012207031,16 C274.7200012207031,16 277.760009765625,-65.27999877929688 277.760009765625,-65.27999877929688 C283.5199890136719,-61.54499816894531 290.13299560546875,-58.08000183105469 297.6000061035156,-54.880001068115234 C297.6000061035156,-54.880001068115234 297.6000061035156,-79.19999694824219 297.6000061035156,-79.19999694824219 C286.9320068359375,-84.21199798583984 278.2650146484375,-90.82499694824219 271.6000061035156,-99.04000091552734 C264.9320068359375,-107.25199890136719 259.89300537109375,-117.44000244140625 256.4800109863281,-129.60000610351562 C256.4800109863281,-129.60000610351562 234.8800048828125,-129.60000610351562 234.8800048828125,-129.60000610351562 C240.53199768066406,-103.89299774169922 252.90499877929688,-83.78500366210938 272,-69.27999877929688 C272,-69.27999877929688 176,-69.27999877929688 176,-69.27999877929688 C195.0919952392578,-83.78500366210938 207.46499633789062,-103.89299774169922 213.1199951171875,-129.60000610351562 C213.1199951171875,-129.60000610351562 191.52000427246094,-129.60000610351562 191.52000427246094,-129.60000610351562 C188.10499572753906,-117.44000244140625 183.06500244140625,-107.25199890136719 176.39999389648438,-99.04000091552734 C169.73199462890625,-90.82499694824219 161.06500244140625,-84.21199798583984 150.39999389648438,-79.19999694824219 C150.39999389648438,-79.19999694824219 150.39999389648438,-54.880001068115234 150.39999389648438,-54.880001068115234 C158.39999389648438,-58.08000183105469 165.60000610351562,-61.91999816894531 172,-66.4000015258789 C172,-66.4000015258789 172,-48.79999923706055 172,-48.79999923706055 C172,-48.79999923706055 198.0800018310547,-48.79999923706055 198.0800018310547,-48.79999923706055 C195.30499267578125,-37.49300003051758 190.32000732421875,-28.132999420166016 183.1199951171875,-20.719999313354492 C175.9199981689453,-13.305000305175781 166.61300659179688,-8 155.1999969482422,-4.800000190734863 C155.1999969482422,-4.800000190734863 155.1999969482422,16.639999389648438 155.1999969482422,16.639999389648438 C172.3730010986328,12.585000038146973 186.29299926757812,5.01200008392334 196.9600067138672,-6.079999923706055 C207.625,-17.172000885009766 214.8800048828125,-31.413000106811523 218.72000122070312,-48.79999923706055 C218.72000122070312,-48.79999923706055 256.1600036621094,-48.79999923706055 256.1600036621094,-48.79999923706055 C256.1600036621094,-48.79999923706055 254.24000549316406,-4.320000171661377 254.24000549316406,-4.320000171661377 C254.24000549316406,-4.320000171661377 232.16000366210938,-4.320000171661377 232.16000366210938,-4.320000171661377 C232.16000366210938,-4.320000171661377 232.16000366210938,16 232.16000366210938,16z"/></g><g opacity="1" transform="matrix(1,0,0,1,0,0)"><path fill="rgb(255,255,255)" fill-opacity="1" d=" M118.66699981689453,-21.760000228881836 C118.66699981689453,-21.760000228881836 128.58700561523438,16 128.58700561523438,16 C128.58700561523438,16 148.90699768066406,16 148.90699768066406,16 C148.90699768066406,16 138.98699951171875,-21.760000228881836 138.98699951171875,-21.760000228881836 C138.98699951171875,-21.760000228881836 118.66699981689453,-21.760000228881836 118.66699981689453,-21.760000228881836z M89.5469970703125,-56.959999084472656 C89.5469970703125,-56.959999084472656 89.5469970703125,-102.08000183105469 89.5469970703125,-102.08000183105469 C89.5469970703125,-102.08000183105469 124.74700164794922,-102.08000183105469 124.74700164794922,-102.08000183105469 C124.74700164794922,-102.08000183105469 124.74700164794922,-56.959999084472656 124.74700164794922,-56.959999084472656 C124.74700164794922,-56.959999084472656 89.5469970703125,-56.959999084472656 89.5469970703125,-56.959999084472656z M65.38700103759766,16 C65.38700103759766,16 85.70700073242188,16 85.70700073242188,16 C85.70700073242188,16 95.62699890136719,-21.760000228881836 95.62699890136719,-21.760000228881836 C95.62699890136719,-21.760000228881836 75.30699920654297,-21.760000228881836 75.30699920654297,-21.760000228881836 C75.30699920654297,-21.760000228881836 65.38700103759766,16 65.38700103759766,16z M1.8669999837875366,-72.31999969482422 C1.8669999837875366,-72.31999969482422 27.62700080871582,-72.31999969482422 27.62700080871582,-72.31999969482422 C27.62700080871582,-72.31999969482422 27.62700080871582,16 27.62700080871582,16 C27.62700080871582,16 46.98699951171875,16 46.98699951171875,16 C46.98699951171875,16 46.98699951171875,-37.599998474121094 46.98699951171875,-37.599998474121094 C46.98699951171875,-37.599998474121094 64.90699768066406,-26.8799991607666 64.90699768066406,-26.8799991607666 C64.90699768066406,-26.8799991607666 64.90699768066406,-49.7599983215332 64.90699768066406,-49.7599983215332 C64.90699768066406,-49.7599983215332 46.98699951171875,-60.47999954223633 46.98699951171875,-60.47999954223633 C46.98699951171875,-60.47999954223633 46.98699951171875,-72.31999969482422 46.98699951171875,-72.31999969482422 C46.98699951171875,-72.31999969482422 65.22699737548828,-72.31999969482422 65.22699737548828,-72.31999969482422 C65.22699737548828,-72.31999969482422 65.22699737548828,-91.83999633789062 65.22699737548828,-91.83999633789062 C65.22699737548828,-91.83999633789062 46.98699951171875,-91.83999633789062 46.98699951171875,-91.83999633789062 C46.98699951171875,-91.83999633789062 46.98699951171875,-107.5199966430664 46.98699951171875,-107.5199966430664 C50.82699966430664,-108.0530014038086 55.891998291015625,-108.80000305175781 62.1870002746582,-109.76000213623047 C62.1870002746582,-109.76000213623047 62.1870002746582,-129.44000244140625 62.1870002746582,-129.44000244140625 C41.492000579833984,-126.34500122070312 22.07900047302246,-124.80000305175781 3.947000026702881,-124.80000305175781 C3.947000026702881,-124.80000305175781 3.947000026702881,-105.27999877929688 3.947000026702881,-105.27999877929688 C11.519000053405762,-105.27999877929688 19.040000915527344,-105.44000244140625 26.506999969482422,-105.76000213623047 C26.506999969482422,-105.76000213623047 26.506999969482422,-91.83999633789062 26.506999969482422,-91.83999633789062 C26.506999969482422,-91.83999633789062 1.8669999837875366,-91.83999633789062 1.8669999837875366,-91.83999633789062 C1.8669999837875366,-91.83999633789062 1.8669999837875366,-72.31999969482422 1.8669999837875366,-72.31999969482422z M0.10700000077486038,9.760000228881836 C0.10700000077486038,9.760000228881836 15.946999549865723,9.760000228881836 15.946999549865723,9.760000228881836 C19.78700065612793,-12.531999588012695 21.707000732421875,-37.439998626708984 21.707000732421875,-64.95999908447266 C21.707000732421875,-64.95999908447266 6.666999816894531,-64.95999908447266 6.666999816894531,-64.95999908447266 C6.666999816894531,-39.25199890136719 4.479000091552734,-14.345000267028809 0.10700000077486038,9.760000228881836z M143.4669952392578,-122.87999725341797 C143.4669952392578,-122.87999725341797 70.8270034790039,-122.87999725341797 70.8270034790039,-122.87999725341797 C70.8270034790039,-122.87999725341797 70.8270034790039,-36.15999984741211 70.8270034790039,-36.15999984741211 C70.8270034790039,-36.15999984741211 143.4669952392578,-36.15999984741211 143.4669952392578,-36.15999984741211 C143.4669952392578,-36.15999984741211 143.4669952392578,-122.87999725341797 143.4669952392578,-122.87999725341797z"/></g><g opacity="1" transform="matrix(1,0,0,1,0,0)"><path fill="rgb(255,255,255)" fill-opacity="1" d=" M-31.78700065612793,-91.83999633789062 C-31.78700065612793,-91.83999633789062 -28.906999588012695,-73.44000244140625 -28.906999588012695,-73.44000244140625 C-28.906999588012695,-73.44000244140625 -12.906999588012695,-73.44000244140625 -12.906999588012695,-73.44000244140625 C-12.906999588012695,-73.44000244140625 -15.786999702453613,-91.83999633789062 -15.786999702453613,-91.83999633789062 C-15.786999702453613,-91.83999633789062 -31.78700065612793,-91.83999633789062 -31.78700065612793,-91.83999633789062z M-90.66699981689453,16.479999542236328 C-77.76200103759766,12.104999542236328 -67.28199768066406,6 -59.22700119018555,-1.840000033378601 C-51.17399978637695,-9.680000305175781 -45.387001037597656,-19.73200035095215 -41.867000579833984,-32 C-41.867000579833984,-32 -22.027000427246094,16 -22.027000427246094,16 C-22.027000427246094,16 -0.2669999897480011,16 -0.2669999897480011,16 C-0.2669999897480011,16 -22.66699981689453,-38.08000183105469 -22.66699981689453,-38.08000183105469 C-22.66699981689453,-38.08000183105469 -40.426998138427734,-38.08000183105469 -40.426998138427734,-38.08000183105469 C-39.57400131225586,-41.8120002746582 -38.933998107910156,-45.70500183105469 -38.50699996948242,-49.7599983215332 C-38.50699996948242,-49.7599983215332 -4.267000198364258,-49.7599983215332 -4.267000198364258,-49.7599983215332 C-4.267000198364258,-49.7599983215332 -4.267000198364258,-69.91999816894531 -4.267000198364258,-69.91999816894531 C-4.267000198364258,-69.91999816894531 -37.707000732421875,-69.91999816894531 -37.707000732421875,-69.91999816894531 C-37.707000732421875,-69.91999816894531 -37.707000732421875,-92.4800033569336 -37.707000732421875,-92.4800033569336 C-37.707000732421875,-92.4800033569336 -57.867000579833984,-92.4800033569336 -57.867000579833984,-92.4800033569336 C-57.867000579833984,-92.4800033569336 -57.867000579833984,-69.91999816894531 -57.867000579833984,-69.91999816894531 C-57.867000579833984,-69.91999816894531 -88.58699798583984,-69.91999816894531 -88.58699798583984,-69.91999816894531 C-88.58699798583984,-69.91999816894531 -88.58699798583984,-49.7599983215332 -88.58699798583984,-49.7599983215332 C-88.58699798583984,-49.7599983215332 -58.82699966430664,-49.7599983215332 -58.82699966430664,-49.7599983215332 C-60.321998596191406,-39.09199905395508 -63.57500076293945,-30.371999740600586 -68.58699798583984,-23.600000381469727 C-73.60199737548828,-16.825000762939453 -80.96199798583984,-11.46500015258789 -90.66699981689453,-7.519999980926514 C-90.66699981689453,-7.519999980926514 -90.66699981689453,16.479999542236328 -90.66699981689453,16.479999542236328z M-145.06700134277344,-102.23999786376953 C-145.06700134277344,-102.23999786376953 -112.26699829101562,-102.23999786376953 -112.26699829101562,-102.23999786376953 C-112.26699829101562,-102.23999786376953 -112.26699829101562,-95.36000061035156 -112.26699829101562,-95.36000061035156 C-112.26699829101562,-95.36000061035156 -91.46700286865234,-95.36000061035156 -91.46700286865234,-95.36000061035156 C-91.46700286865234,-95.36000061035156 -91.46700286865234,-102.23999786376953 -91.46700286865234,-102.23999786376953 C-91.46700286865234,-102.23999786376953 -57.867000579833984,-102.23999786376953 -57.867000579833984,-102.23999786376953 C-57.867000579833984,-102.23999786376953 -57.867000579833984,-95.36000061035156 -57.867000579833984,-95.36000061035156 C-57.867000579833984,-95.36000061035156 -37.06700134277344,-95.36000061035156 -37.06700134277344,-95.36000061035156 C-37.06700134277344,-95.36000061035156 -37.06700134277344,-102.23999786376953 -37.06700134277344,-102.23999786376953 C-37.06700134277344,-102.23999786376953 -4.267000198364258,-102.23999786376953 -4.267000198364258,-102.23999786376953 C-4.267000198364258,-102.23999786376953 -4.267000198364258,-122.23999786376953 -4.267000198364258,-122.23999786376953 C-4.267000198364258,-122.23999786376953 -37.06700134277344,-122.23999786376953 -37.06700134277344,-122.23999786376953 C-37.06700134277344,-122.23999786376953 -37.06700134277344,-130.39999389648438 -37.06700134277344,-130.39999389648438 C-37.06700134277344,-130.39999389648438 -57.867000579833984,-130.39999389648438 -57.867000579833984,-130.39999389648438 C-57.867000579833984,-130.39999389648438 -57.867000579833984,-122.23999786376953 -57.867000579833984,-122.23999786376953 C-57.867000579833984,-122.23999786376953 -91.46700286865234,-122.23999786376953 -91.46700286865234,-122.23999786376953 C-91.46700286865234,-122.23999786376953 -91.46700286865234,-130.39999389648438 -91.46700286865234,-130.39999389648438 C-91.46700286865234,-130.39999389648438 -112.26699829101562,-130.39999389648438 -112.26699829101562,-130.39999389648438 C-112.26699829101562,-130.39999389648438 -112.26699829101562,-122.23999786376953 -112.26699829101562,-122.23999786376953 C-112.26699829101562,-122.23999786376953 -145.06700134277344,-122.23999786376953 -145.06700134277344,-122.23999786376953 C-145.06700134277344,-122.23999786376953 -145.06700134277344,-102.23999786376953 -145.06700134277344,-102.23999786376953z M-136.26699829101562,16 C-136.26699829101562,16 -95.9469985961914,16 -95.9469985961914,16 C-95.9469985961914,-2.6649999618530273 -96.61399841308594,-18.131999969482422 -97.9469985961914,-30.399999618530273 C-99.28199768066406,-42.665000915527344 -101.60199737548828,-54.025001525878906 -104.90699768066406,-64.4800033569336 C-104.90699768066406,-64.4800033569336 -92.74700164794922,-70.72000122070312 -92.74700164794922,-70.72000122070312 C-92.74700164794922,-70.72000122070312 -92.74700164794922,-92.63999938964844 -92.74700164794922,-92.63999938964844 C-92.74700164794922,-92.63999938964844 -111.9469985961914,-82.87999725341797 -111.9469985961914,-82.87999725341797 C-113.5469970703125,-86.61199951171875 -115.14700317382812,-90.08000183105469 -116.74700164794922,-93.27999877929688 C-116.74700164794922,-93.27999877929688 -140.10699462890625,-93.27999877929688 -140.10699462890625,-93.27999877929688 C-136.05499267578125,-85.5999984741211 -132.85499572753906,-78.87999725341797 -130.5070037841797,-73.12000274658203 C-130.5070037841797,-73.12000274658203 -145.38699340820312,-65.5999984741211 -145.38699340820312,-65.5999984741211 C-145.38699340820312,-65.5999984741211 -145.38699340820312,-43.68000030517578 -145.38699340820312,-43.68000030517578 C-145.38699340820312,-43.68000030517578 -123.78700256347656,-54.560001373291016 -123.78700256347656,-54.560001373291016 C-122.4020004272461,-49.439998626708984 -121.33399963378906,-45.119998931884766 -120.58699798583984,-41.599998474121094 C-120.58699798583984,-41.599998474121094 -145.38699340820312,-29.1200008392334 -145.38699340820312,-29.1200008392334 C-145.38699340820312,-29.1200008392334 -145.38699340820312,-7.519999980926514 -145.38699340820312,-7.519999980926514 C-145.38699340820312,-7.519999980926514 -117.70700073242188,-21.600000381469727 -117.70700073242188,-21.600000381469727 C-117.28199768066406,-17.545000076293945 -116.8550033569336,-11.305000305175781 -116.427001953125,-2.880000114440918 C-116.427001953125,-2.880000114440918 -136.26699829101562,-2.880000114440918 -136.26699829101562,-2.880000114440918 C-136.26699829101562,-2.880000114440918 -136.26699829101562,16 -136.26699829101562,16z"/></g><g opacity="1" transform="matrix(1,0,0,1,0,0)"><path fill="rgb(255,255,255)" fill-opacity="1" d=" M-285.1199951171875,14.079999923706055 C-285.1199951171875,14.079999923706055 -152,14.079999923706055 -152,14.079999923706055 C-152,14.079999923706055 -152,-6.559999942779541 -152,-6.559999942779541 C-152,-6.559999942779541 -264,-6.559999942779541 -264,-6.559999942779541 C-264,-6.559999942779541 -264,-50.08000183105469 -264,-50.08000183105469 C-264,-50.08000183105469 -164.8000030517578,-50.08000183105469 -164.8000030517578,-50.08000183105469 C-164.8000030517578,-50.08000183105469 -164.8000030517578,-124.31999969482422 -164.8000030517578,-124.31999969482422 C-164.8000030517578,-124.31999969482422 -288.32000732421875,-124.31999969482422 -288.32000732421875,-124.31999969482422 C-288.32000732421875,-124.31999969482422 -288.32000732421875,-103.68000030517578 -288.32000732421875,-103.68000030517578 C-288.32000732421875,-103.68000030517578 -185.9199981689453,-103.68000030517578 -185.9199981689453,-103.68000030517578 C-185.9199981689453,-103.68000030517578 -185.9199981689453,-70.55999755859375 -185.9199981689453,-70.55999755859375 C-185.9199981689453,-70.55999755859375 -264,-70.55999755859375 -264,-70.55999755859375 C-264,-70.55999755859375 -264,-88 -264,-88 C-264,-88 -285.1199951171875,-88 -285.1199951171875,-88 C-285.1199951171875,-88 -285.1199951171875,14.079999923706055 -285.1199951171875,14.079999923706055z"/></g></g></g></svg>